<mxfile host="app.diagrams.net" modified="2023-08-10T19:33:34.708Z" agent="Mozilla/5.0 (Windows NT 10.0; Win64; x64) AppleWebKit/537.36 (KHTML, like Gecko) Chrome/115.0.0.0 Safari/537.36" etag="nlL3I5zTIMDllV_tsIGz" version="21.6.6" type="github">
  <diagram name="Page-1" id="dp0MAFSl6kwCSOqtO65z">
    <mxGraphModel dx="1900" dy="1673" grid="1" gridSize="10" guides="1" tooltips="1" connect="1" arrows="1" fold="1" page="1" pageScale="1" pageWidth="850" pageHeight="1100" math="0" shadow="0">
      <root>
        <mxCell id="0" />
        <mxCell id="1" parent="0" />
        <mxCell id="it_yALFgsiDpClzJyx-c-9" style="rounded=0;orthogonalLoop=1;jettySize=auto;html=1;entryX=0.913;entryY=0.147;entryDx=0;entryDy=0;entryPerimeter=0;fontSize=20;strokeWidth=3;" edge="1" parent="1" source="it_yALFgsiDpClzJyx-c-1" target="it_yALFgsiDpClzJyx-c-6">
          <mxGeometry relative="1" as="geometry" />
        </mxCell>
        <mxCell id="it_yALFgsiDpClzJyx-c-10" style="rounded=0;orthogonalLoop=1;jettySize=auto;html=1;exitX=0;exitY=0.75;exitDx=0;exitDy=0;fontSize=20;strokeWidth=3;" edge="1" parent="1" source="it_yALFgsiDpClzJyx-c-1" target="it_yALFgsiDpClzJyx-c-2">
          <mxGeometry relative="1" as="geometry" />
        </mxCell>
        <mxCell id="it_yALFgsiDpClzJyx-c-11" style="rounded=0;orthogonalLoop=1;jettySize=auto;html=1;fontSize=20;strokeWidth=3;" edge="1" parent="1" source="it_yALFgsiDpClzJyx-c-1" target="it_yALFgsiDpClzJyx-c-3">
          <mxGeometry relative="1" as="geometry" />
        </mxCell>
        <mxCell id="it_yALFgsiDpClzJyx-c-12" style="rounded=0;orthogonalLoop=1;jettySize=auto;html=1;entryX=1;entryY=1;entryDx=0;entryDy=0;fontSize=20;strokeWidth=3;" edge="1" parent="1" source="it_yALFgsiDpClzJyx-c-1" target="it_yALFgsiDpClzJyx-c-4">
          <mxGeometry relative="1" as="geometry" />
        </mxCell>
        <mxCell id="it_yALFgsiDpClzJyx-c-13" style="rounded=0;orthogonalLoop=1;jettySize=auto;html=1;entryX=1;entryY=1;entryDx=0;entryDy=0;fontSize=20;strokeWidth=3;" edge="1" parent="1" source="it_yALFgsiDpClzJyx-c-1" target="it_yALFgsiDpClzJyx-c-5">
          <mxGeometry relative="1" as="geometry" />
        </mxCell>
        <mxCell id="it_yALFgsiDpClzJyx-c-14" style="rounded=0;orthogonalLoop=1;jettySize=auto;html=1;fontSize=20;strokeWidth=3;" edge="1" parent="1" source="it_yALFgsiDpClzJyx-c-1" target="it_yALFgsiDpClzJyx-c-8">
          <mxGeometry relative="1" as="geometry" />
        </mxCell>
        <mxCell id="it_yALFgsiDpClzJyx-c-15" style="rounded=0;orthogonalLoop=1;jettySize=auto;html=1;fontSize=20;strokeWidth=3;" edge="1" parent="1" source="it_yALFgsiDpClzJyx-c-1" target="it_yALFgsiDpClzJyx-c-7">
          <mxGeometry relative="1" as="geometry" />
        </mxCell>
        <mxCell id="it_yALFgsiDpClzJyx-c-1" value="Employees" style="rounded=1;whiteSpace=wrap;html=1;fontSize=20;strokeWidth=3;fillColor=#08FF6B;strokeColor=#000000;" vertex="1" parent="1">
          <mxGeometry x="170" y="280" width="120" height="60" as="geometry" />
        </mxCell>
        <mxCell id="it_yALFgsiDpClzJyx-c-2" value="role" style="ellipse;whiteSpace=wrap;html=1;fontSize=20;strokeWidth=3;fillColor=#0050ef;fontColor=#ffffff;strokeColor=#001DBC;" vertex="1" parent="1">
          <mxGeometry x="-20" y="300" width="120" height="80" as="geometry" />
        </mxCell>
        <mxCell id="it_yALFgsiDpClzJyx-c-3" value="name" style="ellipse;whiteSpace=wrap;html=1;fontSize=20;strokeWidth=3;fillColor=#0050ef;fontColor=#ffffff;strokeColor=#001DBC;" vertex="1" parent="1">
          <mxGeometry x="-30" y="200" width="120" height="80" as="geometry" />
        </mxCell>
        <mxCell id="it_yALFgsiDpClzJyx-c-4" value="address" style="ellipse;whiteSpace=wrap;html=1;fontSize=20;strokeWidth=3;fillColor=#0050ef;fontColor=#ffffff;strokeColor=#001DBC;" vertex="1" parent="1">
          <mxGeometry x="-20" y="90" width="120" height="80" as="geometry" />
        </mxCell>
        <mxCell id="it_yALFgsiDpClzJyx-c-5" value="contact" style="ellipse;whiteSpace=wrap;html=1;fontSize=20;strokeWidth=3;fillColor=#0050ef;fontColor=#ffffff;strokeColor=#001DBC;" vertex="1" parent="1">
          <mxGeometry x="-20" y="-10" width="120" height="80" as="geometry" />
        </mxCell>
        <mxCell id="it_yALFgsiDpClzJyx-c-6" value="Id" style="ellipse;whiteSpace=wrap;html=1;fontSize=20;strokeWidth=3;fillColor=#0050ef;fontColor=#ffffff;strokeColor=#001DBC;" vertex="1" parent="1">
          <mxGeometry y="410" width="120" height="80" as="geometry" />
        </mxCell>
        <mxCell id="it_yALFgsiDpClzJyx-c-7" value="email" style="ellipse;whiteSpace=wrap;html=1;fontSize=20;strokeWidth=3;fillColor=#0050ef;fontColor=#ffffff;strokeColor=#001DBC;" vertex="1" parent="1">
          <mxGeometry x="240" y="70" width="120" height="80" as="geometry" />
        </mxCell>
        <mxCell id="it_yALFgsiDpClzJyx-c-8" value="image" style="ellipse;whiteSpace=wrap;html=1;fontSize=20;strokeWidth=3;fillColor=#0050ef;fontColor=#ffffff;strokeColor=#001DBC;" vertex="1" parent="1">
          <mxGeometry x="130" width="120" height="80" as="geometry" />
        </mxCell>
        <mxCell id="it_yALFgsiDpClzJyx-c-23" style="rounded=0;orthogonalLoop=1;jettySize=auto;html=1;entryX=0.013;entryY=0.728;entryDx=0;entryDy=0;entryPerimeter=0;fontSize=20;strokeWidth=3;" edge="1" parent="1" source="it_yALFgsiDpClzJyx-c-16" target="it_yALFgsiDpClzJyx-c-18">
          <mxGeometry relative="1" as="geometry" />
        </mxCell>
        <mxCell id="it_yALFgsiDpClzJyx-c-61" style="rounded=0;orthogonalLoop=1;jettySize=auto;html=1;entryX=0.45;entryY=1.022;entryDx=0;entryDy=0;entryPerimeter=0;fontSize=20;strokeWidth=3;" edge="1" parent="1" source="it_yALFgsiDpClzJyx-c-16" target="it_yALFgsiDpClzJyx-c-17">
          <mxGeometry relative="1" as="geometry" />
        </mxCell>
        <mxCell id="it_yALFgsiDpClzJyx-c-16" value="roles" style="rounded=1;whiteSpace=wrap;html=1;fontSize=20;strokeWidth=3;fillColor=#08FF6B;strokeColor=#000000;" vertex="1" parent="1">
          <mxGeometry x="700" y="274.22" width="120" height="60" as="geometry" />
        </mxCell>
        <mxCell id="it_yALFgsiDpClzJyx-c-17" value="Id" style="ellipse;whiteSpace=wrap;html=1;fontSize=20;strokeWidth=3;fillColor=#0050ef;fontColor=#ffffff;strokeColor=#001DBC;" vertex="1" parent="1">
          <mxGeometry x="770" y="140" width="120" height="80" as="geometry" />
        </mxCell>
        <mxCell id="it_yALFgsiDpClzJyx-c-18" value="role" style="ellipse;whiteSpace=wrap;html=1;fontSize=20;strokeWidth=3;fillColor=#0050ef;fontColor=#ffffff;strokeColor=#001DBC;" vertex="1" parent="1">
          <mxGeometry x="860" y="224.22" width="120" height="80" as="geometry" />
        </mxCell>
        <mxCell id="it_yALFgsiDpClzJyx-c-28" style="rounded=0;orthogonalLoop=1;jettySize=auto;html=1;entryX=0;entryY=1;entryDx=0;entryDy=0;fontSize=20;strokeWidth=3;" edge="1" parent="1" source="it_yALFgsiDpClzJyx-c-21" target="it_yALFgsiDpClzJyx-c-24">
          <mxGeometry relative="1" as="geometry" />
        </mxCell>
        <mxCell id="it_yALFgsiDpClzJyx-c-29" style="rounded=0;orthogonalLoop=1;jettySize=auto;html=1;fontSize=20;strokeWidth=3;" edge="1" parent="1" source="it_yALFgsiDpClzJyx-c-21" target="it_yALFgsiDpClzJyx-c-26">
          <mxGeometry relative="1" as="geometry" />
        </mxCell>
        <mxCell id="it_yALFgsiDpClzJyx-c-30" style="rounded=0;orthogonalLoop=1;jettySize=auto;html=1;entryX=0.5;entryY=1;entryDx=0;entryDy=0;fontSize=20;strokeWidth=3;" edge="1" parent="1" source="it_yALFgsiDpClzJyx-c-21" target="it_yALFgsiDpClzJyx-c-25">
          <mxGeometry relative="1" as="geometry" />
        </mxCell>
        <mxCell id="it_yALFgsiDpClzJyx-c-31" style="rounded=0;orthogonalLoop=1;jettySize=auto;html=1;entryX=0.693;entryY=0.973;entryDx=0;entryDy=0;entryPerimeter=0;fontSize=20;strokeWidth=3;" edge="1" parent="1" source="it_yALFgsiDpClzJyx-c-21" target="it_yALFgsiDpClzJyx-c-27">
          <mxGeometry relative="1" as="geometry" />
        </mxCell>
        <mxCell id="it_yALFgsiDpClzJyx-c-106" style="rounded=0;orthogonalLoop=1;jettySize=auto;html=1;entryX=1;entryY=0.75;entryDx=0;entryDy=0;entryPerimeter=0;fontSize=20;strokeWidth=3;" edge="1" parent="1" source="it_yALFgsiDpClzJyx-c-21" target="it_yALFgsiDpClzJyx-c-105">
          <mxGeometry relative="1" as="geometry" />
        </mxCell>
        <mxCell id="it_yALFgsiDpClzJyx-c-21" value="login" style="rounded=1;whiteSpace=wrap;html=1;fontSize=20;strokeWidth=3;fillColor=#08FF6B;strokeColor=#000000;" vertex="1" parent="1">
          <mxGeometry x="450" y="60" width="120" height="60" as="geometry" />
        </mxCell>
        <mxCell id="it_yALFgsiDpClzJyx-c-24" value="Id" style="ellipse;whiteSpace=wrap;html=1;fontSize=20;strokeWidth=3;fillColor=#0050ef;strokeColor=#001DBC;fontColor=#ffffff;" vertex="1" parent="1">
          <mxGeometry x="590" y="-10" width="120" height="80" as="geometry" />
        </mxCell>
        <mxCell id="it_yALFgsiDpClzJyx-c-25" value="password" style="ellipse;whiteSpace=wrap;html=1;fontSize=20;strokeWidth=3;fillColor=#0050ef;strokeColor=#001DBC;fontColor=#ffffff;" vertex="1" parent="1">
          <mxGeometry x="460" y="-160" width="120" height="80" as="geometry" />
        </mxCell>
        <mxCell id="it_yALFgsiDpClzJyx-c-26" value="email" style="ellipse;whiteSpace=wrap;html=1;fontSize=20;strokeWidth=3;fillColor=#0050ef;strokeColor=#001DBC;fontColor=#ffffff;" vertex="1" parent="1">
          <mxGeometry x="590" y="-120" width="120" height="80" as="geometry" />
        </mxCell>
        <mxCell id="it_yALFgsiDpClzJyx-c-27" value="verified" style="ellipse;whiteSpace=wrap;html=1;fontSize=20;strokeWidth=3;fillColor=#0050ef;strokeColor=#001DBC;fontColor=#ffffff;" vertex="1" parent="1">
          <mxGeometry x="340" y="-100" width="120" height="80" as="geometry" />
        </mxCell>
        <mxCell id="it_yALFgsiDpClzJyx-c-38" style="rounded=0;orthogonalLoop=1;jettySize=auto;html=1;fontSize=20;strokeWidth=3;" edge="1" parent="1" source="it_yALFgsiDpClzJyx-c-32" target="it_yALFgsiDpClzJyx-c-35">
          <mxGeometry relative="1" as="geometry" />
        </mxCell>
        <mxCell id="it_yALFgsiDpClzJyx-c-39" style="rounded=0;orthogonalLoop=1;jettySize=auto;html=1;fontSize=20;strokeWidth=3;" edge="1" parent="1" source="it_yALFgsiDpClzJyx-c-32" target="it_yALFgsiDpClzJyx-c-34">
          <mxGeometry relative="1" as="geometry" />
        </mxCell>
        <mxCell id="it_yALFgsiDpClzJyx-c-40" style="rounded=0;orthogonalLoop=1;jettySize=auto;html=1;fontSize=20;strokeWidth=3;" edge="1" parent="1" source="it_yALFgsiDpClzJyx-c-32" target="it_yALFgsiDpClzJyx-c-33">
          <mxGeometry relative="1" as="geometry" />
        </mxCell>
        <mxCell id="it_yALFgsiDpClzJyx-c-41" style="rounded=0;orthogonalLoop=1;jettySize=auto;html=1;entryX=1;entryY=0;entryDx=0;entryDy=0;fontSize=20;strokeWidth=3;" edge="1" parent="1" source="it_yALFgsiDpClzJyx-c-32" target="it_yALFgsiDpClzJyx-c-36">
          <mxGeometry relative="1" as="geometry" />
        </mxCell>
        <mxCell id="it_yALFgsiDpClzJyx-c-42" style="rounded=0;orthogonalLoop=1;jettySize=auto;html=1;entryX=0.68;entryY=0.013;entryDx=0;entryDy=0;entryPerimeter=0;fontSize=20;strokeWidth=3;" edge="1" parent="1" source="it_yALFgsiDpClzJyx-c-32" target="it_yALFgsiDpClzJyx-c-37">
          <mxGeometry relative="1" as="geometry" />
        </mxCell>
        <mxCell id="it_yALFgsiDpClzJyx-c-32" value="course" style="rounded=1;whiteSpace=wrap;html=1;fontSize=20;strokeWidth=3;fillColor=#08FF6B;strokeColor=#000000;" vertex="1" parent="1">
          <mxGeometry x="180" y="640" width="120" height="60" as="geometry" />
        </mxCell>
        <mxCell id="it_yALFgsiDpClzJyx-c-33" value="C_id" style="ellipse;whiteSpace=wrap;html=1;fontSize=20;strokeWidth=3;fillColor=#0050ef;fontColor=#ffffff;strokeColor=#001DBC;" vertex="1" parent="1">
          <mxGeometry x="-10" y="640" width="120" height="80" as="geometry" />
        </mxCell>
        <mxCell id="it_yALFgsiDpClzJyx-c-34" value="type" style="ellipse;whiteSpace=wrap;html=1;fontSize=20;strokeWidth=3;fillColor=#0050ef;fontColor=#ffffff;strokeColor=#001DBC;" vertex="1" parent="1">
          <mxGeometry x="20" y="540" width="120" height="80" as="geometry" />
        </mxCell>
        <mxCell id="it_yALFgsiDpClzJyx-c-35" value="contact hour" style="ellipse;whiteSpace=wrap;html=1;fontSize=20;strokeWidth=3;fillColor=#0050ef;fontColor=#ffffff;strokeColor=#001DBC;" vertex="1" parent="1">
          <mxGeometry x="130" y="480" width="120" height="80" as="geometry" />
        </mxCell>
        <mxCell id="it_yALFgsiDpClzJyx-c-36" value="name" style="ellipse;whiteSpace=wrap;html=1;fontSize=20;strokeWidth=3;fillColor=#0050ef;fontColor=#ffffff;strokeColor=#001DBC;" vertex="1" parent="1">
          <mxGeometry x="10" y="750" width="120" height="80" as="geometry" />
        </mxCell>
        <mxCell id="it_yALFgsiDpClzJyx-c-37" value="semester_id" style="ellipse;whiteSpace=wrap;html=1;fontSize=20;strokeWidth=3;fillColor=#0050ef;fontColor=#ffffff;strokeColor=#001DBC;" vertex="1" parent="1">
          <mxGeometry x="70" y="840" width="120" height="80" as="geometry" />
        </mxCell>
        <mxCell id="it_yALFgsiDpClzJyx-c-47" style="rounded=0;orthogonalLoop=1;jettySize=auto;html=1;fontSize=20;strokeWidth=3;" edge="1" parent="1" source="it_yALFgsiDpClzJyx-c-43" target="it_yALFgsiDpClzJyx-c-44">
          <mxGeometry relative="1" as="geometry" />
        </mxCell>
        <mxCell id="it_yALFgsiDpClzJyx-c-48" style="rounded=0;orthogonalLoop=1;jettySize=auto;html=1;fontSize=20;strokeWidth=3;" edge="1" parent="1" source="it_yALFgsiDpClzJyx-c-43" target="it_yALFgsiDpClzJyx-c-45">
          <mxGeometry relative="1" as="geometry" />
        </mxCell>
        <mxCell id="it_yALFgsiDpClzJyx-c-49" style="rounded=0;orthogonalLoop=1;jettySize=auto;html=1;fontSize=20;strokeWidth=3;" edge="1" parent="1" source="it_yALFgsiDpClzJyx-c-43" target="it_yALFgsiDpClzJyx-c-46">
          <mxGeometry relative="1" as="geometry" />
        </mxCell>
        <mxCell id="it_yALFgsiDpClzJyx-c-43" value="Semester" style="rounded=1;whiteSpace=wrap;html=1;fontSize=20;strokeWidth=3;fillColor=#08FF6B;strokeColor=#000000;" vertex="1" parent="1">
          <mxGeometry x="460" y="640" width="120" height="60" as="geometry" />
        </mxCell>
        <mxCell id="it_yALFgsiDpClzJyx-c-44" value="id" style="ellipse;whiteSpace=wrap;html=1;fontSize=20;strokeWidth=3;fillColor=#0050ef;fontColor=#ffffff;strokeColor=#001DBC;" vertex="1" parent="1">
          <mxGeometry x="370" y="440" width="120" height="80" as="geometry" />
        </mxCell>
        <mxCell id="it_yALFgsiDpClzJyx-c-45" value="Semester No" style="ellipse;whiteSpace=wrap;html=1;fontSize=20;strokeWidth=3;fillColor=#0050ef;fontColor=#ffffff;strokeColor=#001DBC;" vertex="1" parent="1">
          <mxGeometry x="500" y="440" width="120" height="80" as="geometry" />
        </mxCell>
        <mxCell id="it_yALFgsiDpClzJyx-c-46" value="session_id" style="ellipse;whiteSpace=wrap;html=1;fontSize=20;strokeWidth=3;fillColor=#0050ef;fontColor=#ffffff;strokeColor=#001DBC;" vertex="1" parent="1">
          <mxGeometry x="580" y="530" width="120" height="80" as="geometry" />
        </mxCell>
        <mxCell id="it_yALFgsiDpClzJyx-c-50" style="rounded=0;orthogonalLoop=1;jettySize=auto;html=1;fontSize=20;strokeWidth=3;" edge="1" parent="1" source="it_yALFgsiDpClzJyx-c-53" target="it_yALFgsiDpClzJyx-c-54">
          <mxGeometry relative="1" as="geometry" />
        </mxCell>
        <mxCell id="it_yALFgsiDpClzJyx-c-51" style="rounded=0;orthogonalLoop=1;jettySize=auto;html=1;fontSize=20;strokeWidth=3;" edge="1" parent="1" source="it_yALFgsiDpClzJyx-c-53" target="it_yALFgsiDpClzJyx-c-55">
          <mxGeometry relative="1" as="geometry" />
        </mxCell>
        <mxCell id="it_yALFgsiDpClzJyx-c-52" style="rounded=0;orthogonalLoop=1;jettySize=auto;html=1;fontSize=20;strokeWidth=3;" edge="1" parent="1" source="it_yALFgsiDpClzJyx-c-53" target="it_yALFgsiDpClzJyx-c-56">
          <mxGeometry relative="1" as="geometry" />
        </mxCell>
        <mxCell id="it_yALFgsiDpClzJyx-c-59" style="edgeStyle=orthogonalEdgeStyle;rounded=0;orthogonalLoop=1;jettySize=auto;html=1;entryX=0;entryY=0.5;entryDx=0;entryDy=0;fontSize=20;strokeWidth=3;" edge="1" parent="1" source="it_yALFgsiDpClzJyx-c-53" target="it_yALFgsiDpClzJyx-c-57">
          <mxGeometry relative="1" as="geometry" />
        </mxCell>
        <mxCell id="it_yALFgsiDpClzJyx-c-60" style="rounded=0;orthogonalLoop=1;jettySize=auto;html=1;entryX=0.257;entryY=0.102;entryDx=0;entryDy=0;entryPerimeter=0;fontSize=20;strokeWidth=3;" edge="1" parent="1" source="it_yALFgsiDpClzJyx-c-53" target="it_yALFgsiDpClzJyx-c-58">
          <mxGeometry relative="1" as="geometry" />
        </mxCell>
        <mxCell id="it_yALFgsiDpClzJyx-c-53" value="section" style="rounded=1;whiteSpace=wrap;html=1;fontSize=20;strokeWidth=3;fillColor=#08FF6B;strokeColor=#000000;" vertex="1" parent="1">
          <mxGeometry x="770" y="630" width="120" height="60" as="geometry" />
        </mxCell>
        <mxCell id="it_yALFgsiDpClzJyx-c-54" value="id" style="ellipse;whiteSpace=wrap;html=1;fontSize=20;strokeWidth=3;fillColor=#0050ef;fontColor=#ffffff;strokeColor=#001DBC;" vertex="1" parent="1">
          <mxGeometry x="680" y="430" width="120" height="80" as="geometry" />
        </mxCell>
        <mxCell id="it_yALFgsiDpClzJyx-c-55" value="batch" style="ellipse;whiteSpace=wrap;html=1;fontSize=20;strokeWidth=3;fillColor=#0050ef;fontColor=#ffffff;strokeColor=#001DBC;" vertex="1" parent="1">
          <mxGeometry x="810" y="430" width="120" height="80" as="geometry" />
        </mxCell>
        <mxCell id="it_yALFgsiDpClzJyx-c-56" value="Course teacher id" style="ellipse;whiteSpace=wrap;html=1;fontSize=20;strokeWidth=3;fillColor=#0050ef;fontColor=#ffffff;strokeColor=#001DBC;" vertex="1" parent="1">
          <mxGeometry x="890" y="520" width="120" height="80" as="geometry" />
        </mxCell>
        <mxCell id="it_yALFgsiDpClzJyx-c-57" value="session_id" style="ellipse;whiteSpace=wrap;html=1;fontSize=20;strokeWidth=3;fillColor=#0050ef;fontColor=#ffffff;strokeColor=#001DBC;" vertex="1" parent="1">
          <mxGeometry x="940" y="620" width="120" height="80" as="geometry" />
        </mxCell>
        <mxCell id="it_yALFgsiDpClzJyx-c-58" value="semester_id" style="ellipse;whiteSpace=wrap;html=1;fontSize=20;strokeWidth=3;fillColor=#0050ef;fontColor=#ffffff;strokeColor=#001DBC;" vertex="1" parent="1">
          <mxGeometry x="910" y="740" width="120" height="80" as="geometry" />
        </mxCell>
        <mxCell id="it_yALFgsiDpClzJyx-c-67" style="rounded=0;orthogonalLoop=1;jettySize=auto;html=1;entryX=0.99;entryY=0.417;entryDx=0;entryDy=0;entryPerimeter=0;fontSize=20;strokeWidth=3;" edge="1" parent="1" source="it_yALFgsiDpClzJyx-c-63" target="it_yALFgsiDpClzJyx-c-64">
          <mxGeometry relative="1" as="geometry" />
        </mxCell>
        <mxCell id="it_yALFgsiDpClzJyx-c-68" style="rounded=0;orthogonalLoop=1;jettySize=auto;html=1;entryX=0.5;entryY=0;entryDx=0;entryDy=0;fontSize=20;strokeWidth=3;" edge="1" parent="1" source="it_yALFgsiDpClzJyx-c-63" target="it_yALFgsiDpClzJyx-c-65">
          <mxGeometry relative="1" as="geometry" />
        </mxCell>
        <mxCell id="it_yALFgsiDpClzJyx-c-69" style="rounded=0;orthogonalLoop=1;jettySize=auto;html=1;fontSize=20;strokeWidth=3;" edge="1" parent="1" source="it_yALFgsiDpClzJyx-c-63" target="it_yALFgsiDpClzJyx-c-66">
          <mxGeometry relative="1" as="geometry" />
        </mxCell>
        <mxCell id="it_yALFgsiDpClzJyx-c-63" value="Session&amp;nbsp;" style="rounded=1;whiteSpace=wrap;html=1;fontSize=20;strokeWidth=3;fillColor=#08FF6B;strokeColor=#000000;" vertex="1" parent="1">
          <mxGeometry x="470" y="860" width="120" height="60" as="geometry" />
        </mxCell>
        <mxCell id="it_yALFgsiDpClzJyx-c-64" value="id" style="ellipse;whiteSpace=wrap;html=1;fontSize=20;strokeWidth=3;fillColor=#0050ef;fontColor=#ffffff;strokeColor=#001DBC;" vertex="1" parent="1">
          <mxGeometry x="320" y="940" width="120" height="80" as="geometry" />
        </mxCell>
        <mxCell id="it_yALFgsiDpClzJyx-c-65" value="year" style="ellipse;whiteSpace=wrap;html=1;fontSize=20;strokeWidth=3;fillColor=#0050ef;fontColor=#ffffff;strokeColor=#001DBC;" vertex="1" parent="1">
          <mxGeometry x="490" y="970" width="120" height="80" as="geometry" />
        </mxCell>
        <mxCell id="it_yALFgsiDpClzJyx-c-66" value="session" style="ellipse;whiteSpace=wrap;html=1;fontSize=20;strokeWidth=3;fillColor=#0050ef;fontColor=#ffffff;strokeColor=#001DBC;" vertex="1" parent="1">
          <mxGeometry x="640" y="900" width="120" height="80" as="geometry" />
        </mxCell>
        <mxCell id="it_yALFgsiDpClzJyx-c-78" style="rounded=0;orthogonalLoop=1;jettySize=auto;html=1;entryX=0.74;entryY=0.957;entryDx=0;entryDy=0;entryPerimeter=0;fontSize=20;strokeWidth=3;" edge="1" parent="1" source="it_yALFgsiDpClzJyx-c-70" target="it_yALFgsiDpClzJyx-c-71">
          <mxGeometry relative="1" as="geometry" />
        </mxCell>
        <mxCell id="it_yALFgsiDpClzJyx-c-79" style="rounded=0;orthogonalLoop=1;jettySize=auto;html=1;entryX=1;entryY=0.5;entryDx=0;entryDy=0;fontSize=20;strokeWidth=3;" edge="1" parent="1" source="it_yALFgsiDpClzJyx-c-70" target="it_yALFgsiDpClzJyx-c-72">
          <mxGeometry relative="1" as="geometry" />
        </mxCell>
        <mxCell id="it_yALFgsiDpClzJyx-c-80" style="rounded=0;orthogonalLoop=1;jettySize=auto;html=1;fontSize=20;strokeWidth=3;" edge="1" parent="1" source="it_yALFgsiDpClzJyx-c-70" target="it_yALFgsiDpClzJyx-c-73">
          <mxGeometry relative="1" as="geometry" />
        </mxCell>
        <mxCell id="it_yALFgsiDpClzJyx-c-81" style="rounded=0;orthogonalLoop=1;jettySize=auto;html=1;entryX=0.83;entryY=0.037;entryDx=0;entryDy=0;entryPerimeter=0;fontSize=20;strokeWidth=3;" edge="1" parent="1" source="it_yALFgsiDpClzJyx-c-70" target="it_yALFgsiDpClzJyx-c-74">
          <mxGeometry relative="1" as="geometry" />
        </mxCell>
        <mxCell id="it_yALFgsiDpClzJyx-c-70" value="Course Schedule" style="rounded=1;whiteSpace=wrap;html=1;fontSize=20;strokeWidth=3;fillColor=#08FF6B;strokeColor=#000000;" vertex="1" parent="1">
          <mxGeometry x="210" y="1270" width="120" height="60" as="geometry" />
        </mxCell>
        <mxCell id="it_yALFgsiDpClzJyx-c-71" value="id" style="ellipse;whiteSpace=wrap;html=1;fontSize=20;strokeWidth=3;fillColor=#0050ef;fontColor=#ffffff;strokeColor=#001DBC;" vertex="1" parent="1">
          <mxGeometry x="80" y="1130" width="120" height="80" as="geometry" />
        </mxCell>
        <mxCell id="it_yALFgsiDpClzJyx-c-72" value="lecture" style="ellipse;whiteSpace=wrap;html=1;fontSize=20;strokeWidth=3;fillColor=#0050ef;fontColor=#ffffff;strokeColor=#001DBC;" vertex="1" parent="1">
          <mxGeometry x="30" y="1230" width="120" height="80" as="geometry" />
        </mxCell>
        <mxCell id="it_yALFgsiDpClzJyx-c-73" value="Course outcome" style="ellipse;whiteSpace=wrap;html=1;fontSize=20;strokeWidth=3;fillColor=#0050ef;fontColor=#ffffff;strokeColor=#001DBC;" vertex="1" parent="1">
          <mxGeometry x="40" y="1340" width="120" height="80" as="geometry" />
        </mxCell>
        <mxCell id="it_yALFgsiDpClzJyx-c-74" value="Assessment Strategy" style="ellipse;whiteSpace=wrap;html=1;fontSize=20;strokeWidth=3;fillColor=#0050ef;fontColor=#ffffff;strokeColor=#001DBC;" vertex="1" parent="1">
          <mxGeometry x="90" y="1430" width="120" height="80" as="geometry" />
        </mxCell>
        <mxCell id="it_yALFgsiDpClzJyx-c-82" style="rounded=0;orthogonalLoop=1;jettySize=auto;html=1;fontSize=20;strokeWidth=3;" edge="1" parent="1" source="it_yALFgsiDpClzJyx-c-75" target="it_yALFgsiDpClzJyx-c-76">
          <mxGeometry relative="1" as="geometry">
            <mxPoint x="826.4" y="1475" as="targetPoint" />
          </mxGeometry>
        </mxCell>
        <mxCell id="it_yALFgsiDpClzJyx-c-83" style="rounded=0;orthogonalLoop=1;jettySize=auto;html=1;fontSize=20;strokeWidth=3;" edge="1" parent="1" source="it_yALFgsiDpClzJyx-c-75">
          <mxGeometry relative="1" as="geometry">
            <mxPoint x="980" y="1475" as="targetPoint" />
          </mxGeometry>
        </mxCell>
        <mxCell id="it_yALFgsiDpClzJyx-c-75" value="Assessment&lt;br style=&quot;font-size: 20px;&quot;&gt;Strategy" style="rounded=1;whiteSpace=wrap;html=1;fontSize=20;strokeWidth=3;fillColor=#08FF6B;strokeColor=#000000;" vertex="1" parent="1">
          <mxGeometry x="846.4" y="1385" width="120" height="60" as="geometry" />
        </mxCell>
        <mxCell id="it_yALFgsiDpClzJyx-c-76" value="id" style="ellipse;whiteSpace=wrap;html=1;fontSize=20;strokeWidth=3;fillColor=#0050ef;fontColor=#ffffff;strokeColor=#001DBC;" vertex="1" parent="1">
          <mxGeometry x="760" y="1475" width="120" height="80" as="geometry" />
        </mxCell>
        <mxCell id="it_yALFgsiDpClzJyx-c-77" value="type" style="ellipse;whiteSpace=wrap;html=1;fontSize=20;strokeWidth=3;fillColor=#0050ef;fontColor=#ffffff;strokeColor=#001DBC;" vertex="1" parent="1">
          <mxGeometry x="930" y="1475" width="120" height="80" as="geometry" />
        </mxCell>
        <mxCell id="it_yALFgsiDpClzJyx-c-89" style="rounded=0;orthogonalLoop=1;jettySize=auto;html=1;entryX=0.093;entryY=0.168;entryDx=0;entryDy=0;entryPerimeter=0;fontSize=20;strokeWidth=3;" edge="1" parent="1" source="it_yALFgsiDpClzJyx-c-85" target="it_yALFgsiDpClzJyx-c-88">
          <mxGeometry relative="1" as="geometry" />
        </mxCell>
        <mxCell id="it_yALFgsiDpClzJyx-c-90" style="edgeStyle=orthogonalEdgeStyle;rounded=0;orthogonalLoop=1;jettySize=auto;html=1;fontSize=20;strokeWidth=3;" edge="1" parent="1" source="it_yALFgsiDpClzJyx-c-85" target="it_yALFgsiDpClzJyx-c-87">
          <mxGeometry relative="1" as="geometry" />
        </mxCell>
        <mxCell id="it_yALFgsiDpClzJyx-c-91" style="rounded=0;orthogonalLoop=1;jettySize=auto;html=1;entryX=0;entryY=1;entryDx=0;entryDy=0;fontSize=20;strokeWidth=3;" edge="1" parent="1" source="it_yALFgsiDpClzJyx-c-85" target="it_yALFgsiDpClzJyx-c-86">
          <mxGeometry relative="1" as="geometry" />
        </mxCell>
        <mxCell id="it_yALFgsiDpClzJyx-c-85" value="Course&amp;nbsp;&lt;br style=&quot;font-size: 20px;&quot;&gt;Outcome" style="rounded=1;whiteSpace=wrap;html=1;fontSize=20;strokeWidth=3;fillColor=#08FF6B;strokeColor=#000000;" vertex="1" parent="1">
          <mxGeometry x="680" y="1090" width="120" height="60" as="geometry" />
        </mxCell>
        <mxCell id="it_yALFgsiDpClzJyx-c-86" value="id" style="ellipse;whiteSpace=wrap;html=1;fontSize=20;strokeWidth=3;fillColor=#0050ef;fontColor=#ffffff;strokeColor=#001DBC;" vertex="1" parent="1">
          <mxGeometry x="760" y="1000" width="120" height="80" as="geometry" />
        </mxCell>
        <mxCell id="it_yALFgsiDpClzJyx-c-87" value="type" style="ellipse;whiteSpace=wrap;html=1;fontSize=20;strokeWidth=3;fillColor=#0050ef;fontColor=#ffffff;strokeColor=#001DBC;" vertex="1" parent="1">
          <mxGeometry x="900" y="1080" width="120" height="80" as="geometry" />
        </mxCell>
        <mxCell id="it_yALFgsiDpClzJyx-c-88" value="description" style="ellipse;whiteSpace=wrap;html=1;fontSize=20;strokeWidth=3;fillColor=#0050ef;fontColor=#ffffff;strokeColor=#001DBC;" vertex="1" parent="1">
          <mxGeometry x="840" y="1180" width="120" height="80" as="geometry" />
        </mxCell>
        <mxCell id="it_yALFgsiDpClzJyx-c-107" style="rounded=0;orthogonalLoop=1;jettySize=auto;html=1;entryX=0.5;entryY=1;entryDx=0;entryDy=0;fontSize=20;strokeWidth=3;" edge="1" parent="1" source="it_yALFgsiDpClzJyx-c-92" target="it_yALFgsiDpClzJyx-c-93">
          <mxGeometry relative="1" as="geometry" />
        </mxCell>
        <mxCell id="it_yALFgsiDpClzJyx-c-108" style="rounded=0;orthogonalLoop=1;jettySize=auto;html=1;entryX=1;entryY=0.5;entryDx=0;entryDy=0;fontSize=20;strokeWidth=3;" edge="1" parent="1" source="it_yALFgsiDpClzJyx-c-92" target="it_yALFgsiDpClzJyx-c-94">
          <mxGeometry relative="1" as="geometry" />
        </mxCell>
        <mxCell id="it_yALFgsiDpClzJyx-c-109" style="rounded=0;orthogonalLoop=1;jettySize=auto;html=1;fontSize=20;strokeWidth=3;" edge="1" parent="1" source="it_yALFgsiDpClzJyx-c-92" target="it_yALFgsiDpClzJyx-c-95">
          <mxGeometry relative="1" as="geometry" />
        </mxCell>
        <mxCell id="it_yALFgsiDpClzJyx-c-110" style="rounded=0;orthogonalLoop=1;jettySize=auto;html=1;fontSize=20;strokeWidth=3;" edge="1" parent="1" source="it_yALFgsiDpClzJyx-c-92" target="it_yALFgsiDpClzJyx-c-97">
          <mxGeometry relative="1" as="geometry" />
        </mxCell>
        <mxCell id="it_yALFgsiDpClzJyx-c-111" style="rounded=0;orthogonalLoop=1;jettySize=auto;html=1;entryX=0.5;entryY=0;entryDx=0;entryDy=0;fontSize=20;strokeWidth=3;" edge="1" parent="1" source="it_yALFgsiDpClzJyx-c-92" target="it_yALFgsiDpClzJyx-c-96">
          <mxGeometry relative="1" as="geometry" />
        </mxCell>
        <mxCell id="it_yALFgsiDpClzJyx-c-92" value="Course update" style="rounded=1;whiteSpace=wrap;html=1;fontSize=20;strokeWidth=3;fillColor=#08FF6B;strokeColor=#000000;" vertex="1" parent="1">
          <mxGeometry x="510" y="1270" width="120" height="60" as="geometry" />
        </mxCell>
        <mxCell id="it_yALFgsiDpClzJyx-c-93" value="id" style="ellipse;whiteSpace=wrap;html=1;fontSize=20;strokeWidth=3;fillColor=#0050ef;fontColor=#ffffff;strokeColor=#001DBC;" vertex="1" parent="1">
          <mxGeometry x="430" y="1160" width="120" height="80" as="geometry" />
        </mxCell>
        <mxCell id="it_yALFgsiDpClzJyx-c-94" value="course_id" style="ellipse;whiteSpace=wrap;html=1;fontSize=20;strokeWidth=3;fillColor=#0050ef;fontColor=#ffffff;strokeColor=#001DBC;" vertex="1" parent="1">
          <mxGeometry x="360" y="1350" width="120" height="80" as="geometry" />
        </mxCell>
        <mxCell id="it_yALFgsiDpClzJyx-c-95" value="employee_id" style="ellipse;whiteSpace=wrap;html=1;fontSize=20;strokeWidth=3;fillColor=#0050ef;fontColor=#ffffff;strokeColor=#001DBC;" vertex="1" parent="1">
          <mxGeometry x="440" y="1430" width="120" height="80" as="geometry" />
        </mxCell>
        <mxCell id="it_yALFgsiDpClzJyx-c-96" value="CO_id" style="ellipse;whiteSpace=wrap;html=1;fontSize=20;strokeWidth=3;fillColor=#0050ef;fontColor=#ffffff;strokeColor=#001DBC;" vertex="1" parent="1">
          <mxGeometry x="650" y="1330" width="120" height="80" as="geometry" />
        </mxCell>
        <mxCell id="it_yALFgsiDpClzJyx-c-97" value="File" style="ellipse;whiteSpace=wrap;html=1;fontSize=20;strokeWidth=3;fillColor=#0050ef;fontColor=#ffffff;strokeColor=#001DBC;" vertex="1" parent="1">
          <mxGeometry x="570" y="1410" width="120" height="80" as="geometry" />
        </mxCell>
        <mxCell id="it_yALFgsiDpClzJyx-c-102" style="rounded=0;orthogonalLoop=1;jettySize=auto;html=1;entryX=0.247;entryY=0.958;entryDx=0;entryDy=0;entryPerimeter=0;fontSize=20;strokeWidth=3;" edge="1" parent="1" source="it_yALFgsiDpClzJyx-c-98" target="it_yALFgsiDpClzJyx-c-101">
          <mxGeometry relative="1" as="geometry" />
        </mxCell>
        <mxCell id="it_yALFgsiDpClzJyx-c-103" style="rounded=0;orthogonalLoop=1;jettySize=auto;html=1;entryX=0;entryY=1;entryDx=0;entryDy=0;fontSize=20;strokeWidth=3;" edge="1" parent="1" source="it_yALFgsiDpClzJyx-c-98" target="it_yALFgsiDpClzJyx-c-100">
          <mxGeometry relative="1" as="geometry" />
        </mxCell>
        <mxCell id="it_yALFgsiDpClzJyx-c-104" style="rounded=0;orthogonalLoop=1;jettySize=auto;html=1;entryX=0;entryY=0.5;entryDx=0;entryDy=0;fontSize=20;strokeWidth=3;" edge="1" parent="1" source="it_yALFgsiDpClzJyx-c-98" target="it_yALFgsiDpClzJyx-c-99">
          <mxGeometry relative="1" as="geometry" />
        </mxCell>
        <mxCell id="it_yALFgsiDpClzJyx-c-98" value="Documents" style="rounded=1;whiteSpace=wrap;html=1;fontSize=20;strokeWidth=3;fillColor=#08FF6B;strokeColor=#000000;" vertex="1" parent="1">
          <mxGeometry x="860" y="30" width="120" height="60" as="geometry" />
        </mxCell>
        <mxCell id="it_yALFgsiDpClzJyx-c-99" value="id" style="ellipse;whiteSpace=wrap;html=1;fontSize=20;strokeWidth=3;fillColor=#0050ef;fontColor=#ffffff;strokeColor=#001DBC;" vertex="1" parent="1">
          <mxGeometry x="1000" y="100" width="120" height="80" as="geometry" />
        </mxCell>
        <mxCell id="it_yALFgsiDpClzJyx-c-100" value="employee_id" style="ellipse;whiteSpace=wrap;html=1;fontSize=20;strokeWidth=3;fillColor=#0050ef;fontColor=#ffffff;strokeColor=#001DBC;" vertex="1" parent="1">
          <mxGeometry x="1000" y="-20" width="120" height="80" as="geometry" />
        </mxCell>
        <mxCell id="it_yALFgsiDpClzJyx-c-101" value="files" style="ellipse;whiteSpace=wrap;html=1;fontSize=20;strokeWidth=3;fillColor=#0050ef;fontColor=#ffffff;strokeColor=#001DBC;" vertex="1" parent="1">
          <mxGeometry x="920" y="-110" width="120" height="80" as="geometry" />
        </mxCell>
        <mxCell id="it_yALFgsiDpClzJyx-c-105" value="status" style="ellipse;whiteSpace=wrap;html=1;fontSize=20;strokeWidth=3;fillColor=#0050ef;strokeColor=#001DBC;fontColor=#ffffff;" vertex="1" parent="1">
          <mxGeometry x="280" y="-10" width="120" height="80" as="geometry" />
        </mxCell>
      </root>
    </mxGraphModel>
  </diagram>
</mxfile>
